<?xml version="1.0" standalone="no"?>
<!DOCTYPE svg PUBLIC "-//W3C//DTD SVG 20010904//EN"
 "http://www.w3.org/TR/2001/REC-SVG-20010904/DTD/svg10.dtd">
<svg version="1.0" xmlns="http://www.w3.org/2000/svg"
 width="429.000000pt" height="377.000000pt" viewBox="0 0 429.000000 377.000000"
 preserveAspectRatio="xMidYMid meet">
<metadata>
Created by potrace 1.15, written by Peter Selinger 2001-2017
</metadata>
<g transform="translate(0.000000,377.000000) scale(0.100000,-0.100000)"
fill="#000000" stroke="none">
<path d="M694 3733 c-38 -91 -85 -253 -89 -307 -2 -32 -9 -64 -15 -71 -14 -17
-31 -115 -23 -128 4 -7 10 -2 14 13 5 18 7 11 6 -22 -1 -27 -5 -48 -8 -48 -13
0 -27 -47 -18 -61 7 -11 9 -10 9 6 0 11 5 27 10 35 14 20 2 -87 -12 -113 -7
-14 -7 -17 1 -13 7 5 9 1 5 -8 -3 -9 -14 -16 -23 -16 -13 0 -13 -2 -2 -9 8 -6
9 -10 2 -12 -6 -2 -15 -25 -19 -50 -9 -45 -9 -46 15 -35 22 11 26 33 5 29 -11
-3 -4 35 8 42 5 3 6 -4 3 -15 -3 -12 0 -20 7 -20 9 0 10 -13 5 -47 -7 -49 -21
-76 -35 -68 -4 2 -5 -7 -2 -20 2 -14 0 -31 -6 -38 -5 -6 -8 -21 -6 -32 2 -11
-6 -49 -17 -84 -11 -36 -21 -73 -22 -83 -1 -10 -5 -18 -9 -18 -4 0 -5 -6 -2
-13 3 -8 -1 -27 -7 -43 -7 -16 -14 -40 -16 -54 -2 -14 -8 -49 -14 -78 -6 -29
-12 -66 -14 -83 -3 -17 -7 -41 -10 -53 -5 -17 -4 -18 4 -6 9 13 11 13 11 -2 0
-10 -9 -22 -20 -28 -11 -6 -20 -20 -20 -31 0 -13 4 -18 13 -13 8 6 8 3 -1 -9
-8 -9 -11 -20 -8 -26 4 -5 -3 -13 -15 -16 -16 -5 -20 -13 -16 -31 2 -13 0 -24
-6 -24 -5 0 -4 -6 3 -14 13 -17 10 -62 -5 -59 -6 0 -16 -5 -23 -13 -7 -8 -9
-14 -5 -14 4 0 8 -27 9 -60 0 -32 -2 -59 -5 -58 -23 2 -31 -8 -40 -52 -14 -64
-14 -103 -1 -95 6 3 7 -1 4 -9 -3 -9 -10 -14 -14 -11 -5 3 -5 -9 0 -26 5 -17
7 -43 4 -59 -4 -15 -1 -30 4 -34 15 -9 21 4 24 50 1 21 8 45 16 53 8 8 12 28
10 47 -2 18 0 30 4 28 4 -3 8 -2 9 3 0 4 3 17 6 28 2 11 4 30 4 43 -1 15 3 21
11 16 6 -4 9 -3 5 2 -3 5 -1 29 4 54 6 25 10 51 11 58 1 6 3 10 6 7 8 -8 33
25 27 35 -3 5 4 23 16 39 12 17 24 47 26 68 3 42 22 113 34 127 4 4 6 -17 6
-47 -1 -30 -5 -59 -9 -63 -5 -4 2 -12 15 -18 16 -9 22 -21 23 -49 1 -21 -2
-40 -6 -42 -5 -3 -4 -20 0 -39 4 -20 4 -36 -2 -38 -5 -2 -2 -22 6 -46 9 -24
12 -40 7 -37 -5 2 -12 -2 -15 -11 -3 -8 -2 -12 3 -9 6 3 11 -11 13 -30 2 -19
8 -34 13 -33 10 3 11 7 14 88 1 37 4 42 12 27 6 -10 8 -21 6 -24 -3 -3 6 -16
20 -29 20 -18 22 -24 10 -24 -11 0 -14 -5 -10 -17 5 -12 3 -14 -8 -8 -11 6
-12 5 -2 -6 19 -20 16 -28 -9 -23 -13 2 -17 2 -10 -2 6 -3 12 -12 12 -20 0 -9
4 -12 10 -9 5 3 10 1 10 -4 0 -6 -4 -11 -9 -11 -12 0 -6 -93 6 -97 6 -2 8 -27
5 -55 -4 -39 -2 -49 8 -43 9 6 10 3 2 -12 -6 -10 -7 -25 -2 -32 4 -8 7 -36 5
-62 -1 -27 1 -52 6 -55 5 -3 5 -13 0 -23 -6 -10 -8 -26 -5 -37 2 -10 6 -56 7
-101 2 -72 0 -80 -14 -72 -14 7 -18 -1 -24 -57 -4 -35 -4 -82 0 -104 7 -40 21
-52 31 -26 6 16 34 10 46 -8 10 -14 10 -80 1 -89 -3 -4 -12 -2 -19 4 -9 8 -11
5 -7 -10 3 -12 1 -21 -4 -21 -6 0 -10 -12 -9 -27 0 -24 -4 -69 -19 -208 -1
-11 -5 -45 -9 -75 -4 -30 -9 -71 -10 -90 -5 -59 -6 -61 -16 -55 -5 3 -10 1
-10 -4 0 -6 5 -11 12 -11 6 0 8 -3 5 -6 -4 -4 -14 -1 -23 6 -13 12 -17 11 -25
-1 -12 -19 -11 -80 1 -99 7 -11 10 -3 10 29 0 24 3 42 6 38 6 -6 6 -134 1
-168 -2 -10 -9 -25 -17 -35 -9 -11 -10 -15 -3 -10 9 5 13 -1 13 -18 l0 -26
124 0 c110 0 125 2 129 18 4 16 5 16 6 -1 1 -15 10 -17 64 -16 l62 2 2 34 c1
20 9 40 20 48 10 7 15 17 10 21 -4 4 -7 2 -7 -4 0 -7 -5 -12 -10 -12 -7 0 -7
7 0 20 6 11 15 18 20 15 9 -6 31 27 29 42 -3 20 2 33 14 33 6 0 23 25 37 55
14 30 30 55 37 55 7 0 10 7 6 16 -3 8 4 29 17 46 12 17 16 27 9 23 -14 -7 11
20 102 115 24 25 42 48 41 53 -1 4 1 6 5 6 22 -4 34 2 30 14 -2 6 4 23 13 37
10 14 17 28 16 32 0 3 3 10 8 15 5 5 6 3 2 -4 -10 -18 9 -16 24 2 10 12 10 16
-1 19 -37 12 -42 15 -17 13 15 -1 27 3 27 8 -1 6 -5 9 -10 7 -13 -3 -11 15 2
24 6 3 9 15 6 25 -4 14 0 19 15 19 10 0 17 4 14 8 -11 18 34 41 81 41 41 -1
74 5 153 25 13 4 68 17 135 32 80 19 122 21 152 9 25 -11 35 -11 50 -1 70 49
438 25 535 -34 17 -10 54 -41 82 -68 28 -27 78 -70 111 -96 66 -52 86 -73 148
-156 22 -30 44 -57 49 -58 4 -2 8 -8 8 -14 0 -5 7 -16 15 -25 8 -8 13 -19 10
-24 -4 -5 0 -9 7 -9 12 0 36 -43 44 -80 1 -8 8 -16 13 -18 6 -2 11 -13 12 -25
0 -21 1 -21 8 -3 7 18 8 18 14 2 4 -10 7 -26 7 -37 0 -10 4 -19 9 -19 5 0 15
-16 21 -35 6 -19 16 -35 21 -35 5 0 9 -9 9 -19 0 -11 7 -26 15 -35 9 -8 16
-19 16 -23 0 -4 2 -25 6 -45 6 -42 26 -50 50 -20 14 16 14 16 9 0 -5 -16 4
-18 104 -18 94 0 110 2 110 16 0 10 -6 14 -15 10 -8 -3 -15 -1 -15 4 0 6 7 10
16 10 8 0 12 5 9 10 -4 6 -11 8 -16 5 -5 -4 -9 2 -9 12 0 11 -5 24 -10 29 -6
6 -19 27 -29 47 -18 35 -18 37 0 53 11 9 19 13 19 8 0 -6 15 -10 34 -11 l33
-1 7 87 c3 47 11 87 16 89 6 2 8 16 5 30 -3 15 -2 21 1 15 9 -21 23 -15 17 7
-3 11 -10 20 -15 20 -5 0 -6 5 -3 10 4 6 10 8 15 5 9 -6 5 102 -5 129 -5 11
-3 21 6 27 12 7 12 9 -1 9 -13 0 -13 1 0 10 10 7 11 10 2 10 -8 0 -12 13 -10
39 2 21 6 37 11 34 4 -2 7 5 7 16 0 11 -4 23 -10 26 -13 8 -13 86 0 119 6 17
6 26 0 26 -14 0 -12 28 2 32 7 3 8 9 3 18 -5 8 -8 31 -6 52 1 21 0 38 -3 38
-4 0 -28 -22 -54 -49 -30 -32 -73 -62 -117 -83 -67 -31 -76 -33 -185 -33 -104
0 -120 3 -172 28 -31 15 -59 31 -62 36 -3 5 -38 19 -78 31 -40 12 -93 30 -118
40 -25 10 -97 35 -160 54 -63 20 -128 43 -145 50 -16 8 -64 30 -105 49 -150
68 -312 206 -382 324 -18 30 -41 69 -51 86 -11 17 -20 38 -22 47 -2 8 -10 31
-19 51 -8 20 -12 39 -9 43 4 3 -1 6 -11 6 -13 0 -16 5 -10 23 3 12 3 19 -2 14
-10 -10 -34 61 -27 82 4 12 3 13 -5 2 -7 -9 -12 0 -17 35 -12 76 -14 213 -4
219 5 4 9 17 9 30 0 13 5 27 10 30 6 3 10 15 10 27 0 11 9 37 19 57 11 20 22
44 25 55 4 11 12 16 21 12 10 -4 19 2 25 17 9 19 10 16 7 -15 -3 -44 7 -41 23
7 6 19 16 35 21 35 6 0 7 -4 4 -10 -10 -16 0 -12 27 13 14 12 39 48 56 79 17
32 39 70 50 85 11 15 22 38 26 49 4 12 17 24 29 26 39 7 46 0 36 -35 -11 -40
-11 -56 0 -39 13 22 22 -29 12 -66 -7 -23 -6 -34 4 -42 11 -9 17 -4 31 27 14
33 17 35 23 18 6 -15 13 -1 30 55 32 108 41 129 64 141 11 6 15 14 10 18 -6 3
0 16 13 31 l24 25 0 -33 c0 -18 -5 -42 -11 -53 -5 -11 -14 -43 -19 -72 -5 -29
-11 -61 -15 -72 -3 -11 2 -6 11 10 10 17 17 33 16 38 -1 4 3 7 9 7 6 0 9 6 6
13 -4 12 11 60 39 124 8 17 14 36 14 41 0 6 9 8 21 5 20 -6 20 -5 6 23 -20 40
-9 224 14 224 5 0 9 14 9 30 0 17 5 30 13 30 9 0 9 2 -1 8 -9 7 -9 18 2 58 12
41 36 172 36 201 0 4 4 1 9 -6 6 -10 8 0 5 30 -4 29 -2 39 4 31 10 -15 22 36
22 94 0 38 9 48 27 32 11 -9 17 -9 24 3 11 18 12 32 0 25 -8 -5 -25 23 -19 30
2 1 42 -35 90 -81 48 -46 82 -85 75 -88 -6 -2 14 -28 45 -58 62 -60 107 -99
111 -96 2 1 21 -6 42 -16 39 -18 85 -72 85 -102 0 -8 4 -15 8 -15 5 0 16 -19
26 -42 29 -72 40 -92 52 -108 7 -8 20 -29 28 -45 11 -21 16 -24 16 -12 0 10 4
16 8 13 5 -3 7 7 4 22 -4 30 19 58 53 64 11 1 29 13 39 24 l20 22 35 -20 c20
-11 47 -29 60 -39 13 -11 28 -19 33 -19 5 0 16 -7 25 -15 8 -8 19 -12 25 -9 6
4 5 10 -3 15 -18 11 -6 11 24 0 17 -7 30 -26 45 -68 12 -32 31 -73 43 -92 19
-31 22 -33 31 -17 7 12 7 21 -1 29 -6 6 -11 18 -10 27 0 10 3 9 9 -5 6 -13 9
11 9 72 1 57 5 94 12 99 11 6 8 82 -5 144 -3 14 -8 39 -11 55 -5 29 -5 29 5 5
6 -13 18 -32 26 -41 8 -9 17 -29 20 -45 7 -43 25 -84 35 -79 9 6 39 -57 71
-152 12 -36 24 -60 26 -53 3 8 8 8 18 -1 11 -9 11 -4 -2 26 -8 20 -19 45 -24
54 -16 29 -50 113 -50 124 0 6 -6 18 -13 26 -8 9 -19 41 -26 71 -6 30 -25 75
-40 100 -16 25 -51 88 -78 140 -80 155 -224 379 -257 402 -6 4 -584 8 -1283 8
l-1273 0 -16 -37z"/>
<path d="M3302 2855 c-39 -12 -94 -47 -132 -85 -23 -23 -59 -103 -66 -148 -7
-43 6 -61 28 -38 8 7 30 17 49 21 51 11 152 59 184 89 17 16 22 26 14 26 -8 0
-20 -9 -27 -20 -7 -11 -19 -20 -27 -20 -8 0 -15 -4 -15 -10 0 -5 -7 -10 -16
-10 -13 0 -15 7 -10 36 5 26 2 44 -13 70 l-21 35 24 10 c32 15 63 -2 71 -40 5
-23 10 -28 27 -23 14 3 19 1 14 -6 -9 -15 -1 -15 25 -1 14 7 18 16 14 30 -4
11 -2 26 4 33 8 10 6 17 -8 30 -30 27 -72 34 -119 21z"/>
<path d="M2396 2493 c-11 -3 -36 -16 -55 -29 -63 -43 -104 -74 -98 -74 3 0
-13 -21 -36 -46 -43 -47 -64 -84 -47 -84 5 0 21 5 37 12 15 6 31 11 36 10 11
-3 8 16 -3 20 -6 2 4 20 22 40 l32 38 14 -38 c7 -20 14 -44 14 -52 1 -24 19
-29 52 -15 17 7 54 17 81 22 l50 8 3 44 c4 55 -3 85 -25 106 -15 15 -14 16 20
13 39 -4 97 -41 97 -62 0 -7 -7 -19 -15 -26 -26 -22 -16 -28 25 -18 43 11 54
36 20 45 -11 3 -20 12 -20 20 0 8 -13 20 -30 26 -16 6 -30 15 -30 19 0 18 -98
33 -144 21z"/>
</g>
</svg>
